#!OML:ASF I:\Actors\actors\Patient Classification 2\Patient 1\Session 1\actor1.ASF
:FULLY-SPECIFIED
:DEGREES
102
root -0.647957 18.6669 5.66047 -0.435032 -3.21191 -4.40609
lowerback 2.09534 1.13509 2.28528
upperback -1.15334 1.59951 0.666755
thorax -2.31477 0.76783 -0.660508
lowerneck -11.0319 -1.51562 -0.834678
upperneck 24.0012 -2.90098 3.76011
head 9.44385 -1.02268 1.10922
rclavicle -1.89964e-014 5.1684e-015
rhumerus -50.2612 15.0016 -93.2976
rradius 82.8789
rwrist -5.76434
rhand -9.66675 -39.8344
rfingers 7.12502
rthumb 16.3045 -69.1689
lclavicle -1.89964e-014 5.1684e-015
lhumerus -46.1157 3.17553 87.108
lradius 43.7005
lwrist -5.22074
lhand -9.7608 -24.4506
lfingers 7.12502
lthumb 16.214 4.89135
rfemur 0 0 0
rtibia 0
rfoot 0 0
rtoes 0
lfemur -3.36558 -6.86155 -10.5178
ltibia 23.4419
lfoot -24.6687 13.8765
ltoes -54.3779
103
root -0.657231 18.664 5.65549 -0.587952 -2.86477 -4.38982
lowerback 2.24519 1.05482 2.09717
upperback -1.0721 1.48895 0.645299
thorax -2.32252 0.715846 -0.575231
lowerneck -11.2252 -1.6221 -0.83728
upperneck 24.3423 -3.07764 3.80708
head 9.60703 -1.09303 1.10633
rclavicle 1.51573e-015 4.37326e-015
rhumerus -48.2391 15.7449 -92.7407
rradius 84.2965
rwrist -6.97457
rhand -7.96417 -40.9542
rfingers 7.12502
rthumb 17.9433 -70.1465
lclavicle 1.51573e-015 4.37326e-015
lhumerus -46.0516 3.16464 86.9342
lradius 43.6013
lwrist -5.15598
lhand -9.80442 -24.688
lfingers 7.12502
lthumb 16.172 4.65736
rfemur 0 0 0
rtibia 0
rfoot 0 0
rtoes 0
lfemur -3.31308 -6.62382 -10.4098
ltibia 23.4437
lfoot -24.3559 13.3787
ltoes -54.5062
104
root -0.657525 18.6638 5.64455 -0.590327 -2.7523 -4.40872
lowerback 2.34301 1.06399 2.05778
upperback -1.03951 1.50147 0.619666
thorax -2.34398 0.72247 -0.581695
lowerneck -11.4046 -1.76267 -0.82799
upperneck 24.6518 -3.28432 3.77544
head 9.7566 -1.18507 1.06995
rclavicle -1.10077e-014 -5.1684e-015
rhumerus -45.8845 16.486 -91.9532
rradius 85.3117
rwrist -8.02033
rhand -4.01546 -43.3422
rfingers 7.12502
rthumb 21.7391 -72.1414
lclavicle -1.10077e-014 -5.1684e-015
lhumerus -46.1241 2.94591 86.8908
lradius 44.094
lwrist -4.89781
lhand -9.59847 -24.7118
lfingers 7.12502
lthumb 16.3703 4.61739
rfemur 0 0 0
rtibia 0
rfoot 0 0
rtoes 0
lfemur -3.38585 -6.49648 -10.3366
ltibia 23.4498
lfoot -24.2184 13.2096
ltoes -54.5684
105
root -0.652456 18.6653 5.62743 -0.563418 -2.83295 -4.38619
lowerback 2.49232 1.1366 2.02867
upperback -1.01975 1.60025 0.583911
thorax -2.40494 0.771414 -0.609366
lowerneck -11.4905 -1.90632 -0.841254
upperneck 24.8537 -3.47796 3.71449
head 9.8497 -1.2789 1.02825
rclavicle 1.96673e-014 5.1684e-015
rhumerus -43.1782 17.1338 -90.99
rradius 85.8434
rwrist -8.70091
rhand -3.65936 -43.8453
rfingers 7.12502
rthumb 22.081 -72.6046
lclavicle 1.96673e-014 5.1684e-015
lhumerus -45.83 2.93258 86.7875
lradius 43.7426
lwrist -4.82094
lhand -9.57166 -25.1821
lfingers 7.12502
lthumb 16.3961 4.1449
rfemur 0 0 0
rtibia 0
rfoot 0 0
rtoes 0
lfemur -3.4677 -6.48042 -10.3709
ltibia 23.4675
lfoot -24.2309 13.2713
ltoes -54.5169
106
root -0.648327 18.6672 5.60664 -0.578788 -3.01791 -4.36944
lowerback 2.72117 1.24283 1.99428
upperback -0.982455 1.74531 0.546928
thorax -2.49152 0.843332 -0.639583
lowerneck -11.5255 -2.02664 -0.931209
upperneck 24.9747 -3.65254 3.78745
head 9.9079 -1.35771 1.04844
rclavicle -1.90709e-014 1.70955e-014
rhumerus -40.1721 17.6509 -90.0194
rradius 85.6694
rwrist -8.34599
rhand -7.49884 -40.9641
rfingers 7.12502
rthumb 18.391 -70.1147
lclavicle -1.90709e-014 1.70955e-014
lhumerus -45.909 2.55105 86.8367
lradius 44.1644
lwrist -4.35946
lhand -9.55484 -25.0614
lfingers 7.12502
lthumb 16.4123 4.26426
rfemur 0 0 0
rtibia 0
rfoot 0 0
rtoes 0
lfemur -3.50024 -6.3231 -10.3895
ltibia 23.4957
lfoot -24.2041 13.2695
ltoes -54.4286
107
root -0.645498 18.6694 5.58278 -0.583908 -3.30391 -4.41032
lowerback 2.98363 1.39108 2.01781
upperback -0.932378 1.94924 0.514826
thorax -2.58063 0.943719 -0.701665
lowerneck -11.5775 -2.13911 -1.07507
upperneck 25.0647 -3.82578 3.94916
head 9.96166 -1.431 1.10868
rclavicle 1.96921e-014 2.0276e-014
rhumerus -36.9625 18.0554 -89.0766
rradius 84.9217
rwrist -7.21513
rhand -9.19299 -39.0345
rfingers 7.12502
rthumb 16.7607 -68.3311
lclavicle 1.96921e-014 2.0276e-014
lhumerus -45.3451 2.79153 86.5897
lradius 42.5552
lwrist -4.34867
lhand -10.1667 -26.4995
lfingers 7.12502
lthumb 15.8231 2.87383
rfemur 0 0 0
rtibia 0
rfoot 0 0
rtoes 0
lfemur -3.51855 -6.07331 -10.3367
ltibia 23.5131
lfoot -24.1709 13.2841
ltoes -54.3308
108
root -0.641481 18.6713 5.55672 -0.59814 -3.63489 -4.42978
lowerback 3.30295 1.58484 2.07486
upperback -0.870127 2.21537 0.434662
thorax -2.68391 1.07399 -0.837962
lowerneck -11.6895 -2.30535 -1.10894
upperneck 25.1822 -4.06172 3.96034
head 10.0339 -1.53842 1.08915
rclavicle -1.65675e-014 -7.15625e-015
rhumerus -33.5696 18.2026 -88.0837
rradius 83.9021
rwrist -6.6905
rhand -9.52964 -38.3463
rfingers 7.12502
rthumb 16.4366 -67.67
lclavicle -1.65675e-014 -7.15625e-015
lhumerus -44.9405 2.53567 86.4866
lradius 41.8438
lwrist -3.85908
lhand -10.5314 -27.7611
lfingers 7.12502
lthumb 15.4719 1.63979
rfemur 0 0 0
rtibia 0
rfoot 0 0
rtoes 0
lfemur -3.50865 -5.85417 -10.3268
ltibia 23.5115
lfoot -24.1625 13.3992
ltoes -54.3252
109
root -0.637019 18.6735 5.52943 -0.638166 -3.92059 -4.3772
lowerback 3.68552 1.80142 2.07078
upperback -0.810288 2.50958 0.307119
thorax -2.82342 1.21828 -0.994788
lowerneck -11.8241 -2.53022 -1.13422
upperneck 25.3057 -4.38917 3.99407
head 10.1165 -1.68395 1.06415
rclavicle -2.44132e-015 -7.95139e-016
rhumerus -30.1022 18.0491 -87.0896
rradius 82.5605
rwrist -6.73034
rhand -9.76416 -37.992
rfingers 7.12502
rthumb 16.2107 -67.3342
lclavicle -2.44132e-015 -7.95139e-016
lhumerus -44.742 2.01181 86.4625
lradius 41.9199
lwrist -3.32282
lhand -10.6244 -28.2746
lfingers 7.12502
lthumb 15.3823 1.13314
rfemur 0 0 0
rtibia 0
rfoot 0 0
rtoes 0
lfemur -3.48543 -5.69046 -10.404
ltibia 23.5021
lfoot -24.1354 13.5549
ltoes -54.3633
110
root -0.634077 18.6766 5.50204 -0.669473 -4.11899 -4.26781
lowerback 4.06688 2.01193 1.95696
upperback -0.747783 2.78975 0.1895
thorax -2.96417 1.35737 -1.08214
lowerneck -11.9556 -2.76703 -1.37023
upperneck 25.4221 -4.76638 4.33178
head 10.2117 -1.83731 1.17538
rclavicle 7.85821e-015 -3.18055e-015
rhumerus -26.6635 17.697 -86.1206
rradius 80.8413
rwrist -6.67117
rhand -10.0923 -37.5445
rfingers 7.12502
rthumb 15.8947 -66.9122
lclavicle 7.85821e-015 -3.18055e-015
lhumerus -44.6705 1.69328 86.4142
lradius 42.3436
lwrist -3.0583
lhand -10.6296 -28.2836
lfingers 7.12502
lthumb 15.3773 1.12452
rfemur 0 0 0
rtibia 0
rfoot 0 0
rtoes 0
lfemur -3.4975 -5.57596 -10.5328
ltibia 23.4972
lfoot -24.078 13.6587
ltoes -54.3251
111
root -0.632675 18.6796 5.47386 -0.680759 -4.26977 -4.24169
lowerback 4.45902 2.21125 1.89742
upperback -0.664117 3.05795 0.116431
thorax -3.08895 1.49015 -1.15597
lowerneck -12.092 -3.02612 -1.73577
upperneck 25.4899 -5.18044 4.80786
head 10.3022 -2.00425 1.35233
rclavicle -4.75935e-014 -3.97569e-016
rhumerus -23.2373 17.2489 -85.1846
rradius 78.7569
rwrist -6.37555
rhand -10.3601 -37.0898
rfingers 7.12502
rthumb 15.6368 -66.4778
lclavicle -4.75935e-014 -3.97569e-016
lhumerus -44.694 1.31563 86.4436
lradius 43.3182
lwrist -2.6533
lhand -10.4896 -27.8589
lfingers 7.12502
lthumb 15.5121 1.53887
rfemur 0 0 0
rtibia 0
rfoot 0 0
rtoes 0
lfemur -3.55054 -5.42538 -10.547
ltibia 23.501
lfoot -23.9735 13.6916
ltoes -54.3572
112
root -0.632754 18.6831 5.44373 -0.66042 -4.44958 -4.31367
lowerback 4.88619 2.44122 1.91417
upperback -0.595183 3.3722 0.0574996
thorax -3.24331 1.64396 -1.26588
lowerneck -12.1473 -3.3045 -1.96262
upperneck 25.4187 -5.59489 5.09473
head 10.32 -2.1833 1.43859
rclavicle -1.71048e-014 -1.59028e-015
rhumerus -19.8819 16.704 -84.3279
rradius 76.2869
rwrist -5.87213
rhand -9.26721 -37.2835
rfingers 7.12502
rthumb 16.6892 -66.5861
lclavicle -1.71048e-014 -1.59028e-015
lhumerus -45.1411 0.609101 86.5817
lradius 45.6546
lwrist -1.97934
lhand -9.99856 -26.6205
lfingers 7.12502
lthumb 15.985 2.73995
rfemur 0 0 0
rtibia 0
rfoot 0 0
rtoes 0
lfemur -3.6482 -5.20921 -10.4331
ltibia 23.5208
lfoot -23.8745 13.6871
ltoes -54.3965
113
root -0.634385 18.6873 5.41282 -0.588693 -4.61271 -4.34691
lowerback 5.28822 2.70704 1.91888
upperback -0.553483 3.73053 -0.0753094
thorax -3.40487 1.81873 -1.45128
lowerneck -12.1694 -3.60671 -2.08135
upperneck 25.2801 -6.05429 5.34764
head 10.3069 -2.37842 1.48841
rclavicle -1.9338e-014 -1.19271e-015
rhumerus -16.7089 16.0853 -83.5676
rradius 73.5533
rwrist -5.41192
rhand -5.82125 -38.8309
rfingers 7.12502
rthumb 20.0042 -67.8212
lclavicle -1.9338e-014 -1.19271e-015
lhumerus -44.9798 0.155385 86.5198
lradius 46.0638
lwrist -1.64592
lhand -10.0196 -26.624
lfingers 7.12502
lthumb 15.9648 2.7381
rfemur 0 0 0
rtibia 0
rfoot 0 0
rtoes 0
lfemur -3.82473 -4.98192 -10.3513
ltibia 23.5615
lfoot -23.7814 13.6445
ltoes -54.3771
114
root -0.636203 18.6916 5.38163 -0.48845 -4.61817 -4.33819
lowerback 5.65438 2.92546 1.90937
upperback -0.494808 4.02165 -0.249612
thorax -3.52731 1.96041 -1.66696
lowerneck -12.2473 -3.91304 -2.21248
upperneck 25.1392 -6.53419 5.66966
head 10.31 -2.57526 1.56064
rclavicle -4.67268e-014 7.95139e-016
rhumerus -13.6067 15.6819 -82.8082
rradius 70.6216
rwrist -5.27936
rhand -4.5704 -40.0124
rfingers 7.12502
rthumb 21.2061 -68.8725
lclavicle -4.67268e-014 7.95139e-016
lhumerus -43.977 0.980911 86.0086
lradius 44.6845
lwrist -2.76132
lhand -10.194 -26.4775
lfingers 7.12502
lthumb 15.7968 2.89791
rfemur 0 0 0
rtibia 0
rfoot 0 0
rtoes 0
lfemur -4.08743 -4.82917 -10.3062
ltibia 23.6162
lfoot -23.6232 13.5814
ltoes -54.4171
115
root -0.638136 18.696 5.35156 -0.408122 -4.52194 -4.2973
lowerback 5.98323 3.09763 1.78417
upperback -0.381896 4.24323 -0.356432
thorax -3.58707 2.07153 -1.74147
lowerneck -12.3055 -4.16751 -2.36355
upperneck 24.9275 -6.91008 5.91911
head 10.2784 -2.73642 1.62344
rclavicle -3.99806e-014 2.38542e-015
rhumerus -10.5382 15.7085 -81.8849
rradius 67.6153
rwrist -5.67229
rhand -3.88987 -40.5944
rfingers 7.12502
rthumb 21.8597 -69.3796
lclavicle -3.99806e-014 2.38542e-015
lhumerus -43.384 1.38269 85.7879
lradius 44.4379
lwrist -2.95359
lhand -10.1449 -26.3789
lfingers 7.12502
lthumb 15.8441 2.99279
rfemur 0 0 0
rtibia 0
rfoot 0 0
rtoes 0
lfemur -4.36202 -4.68598 -10.2902
ltibia 23.6788
lfoot -23.3681 13.4995
ltoes -54.5332
116
root -0.640752 18.7002 5.32235 -0.341436 -4.39067 -4.26549
lowerback 6.33926 3.27149 1.64398
upperback -0.258966 4.46621 -0.433678
thorax -3.655 2.18369 -1.78058
lowerneck -12.3061 -4.42269 -2.65469
upperneck 24.6483 -7.28534 6.30693
head 10.2242 -2.89761 1.75914
rclavicle -4.99695e-014 1.43125e-014
rhumerus -7.84663 16.1489 -80.8797
rradius 64.9185
rwrist -7.22715
rhand -5.21278 -39.4425
rfingers 7.12502
rthumb 20.589 -68.3706
lclavicle -4.99695e-014 1.43125e-014
lhumerus -43.054 1.52724 85.6969
lradius 44.7992
lwrist -2.72799
lhand -9.88322 -26.4811
lfingers 7.12502
lthumb 16.0961 2.87043
rfemur 0 0 0
rtibia 0
rfoot 0 0
rtoes 0
lfemur -4.63258 -4.49273 -10.2565
ltibia 23.7527
lfoot -23.0688 13.3626
ltoes -54.6936
117
root -0.642611 18.7037 5.29447 -0.27723 -4.17993 -4.30517
lowerback 6.78815 3.43167 1.60726
upperback -0.185236 4.67926 -0.521572
thorax -3.81745 2.28683 -1.89766
lowerneck -12.2857 -4.69753 -3.04938
upperneck 24.429 -7.71146 6.85775
head 10.2056 -3.07275 1.96328
rclavicle 4.52981e-014 -1.59028e-014
rhumerus -5.83532 16.9078 -79.9916
rradius 62.8675
rwrist -10.3027
rhand -8.05611 -38.6593
rfingers 7.12502
rthumb 17.8548 -67.8596
lclavicle 4.52981e-014 -1.59028e-014
lhumerus -43.1197 0.75748 85.9054
lradius 45.9339
lwrist -1.87035
lhand -9.85818 -26.021
lfingers 7.12502
lthumb 16.1202 3.32855
rfemur 0 0 0
rtibia 0
rfoot 0 0
rtoes 0
lfemur -4.90722 -4.40439 -10.1508
ltibia 23.8378
lfoot -22.8587 13.1849
ltoes -54.7421
